P3
100 50
255
80 80 80 79 79 79 79 79 79 79 79 79 79 79 79 79 79 79 78 78 78 78 78 78 78 78 78 78 78 78 78 78 78 77 77 77 77 77 77 77 77 77 77 77 77 77 77 77 76 76 76 76 76 76 76 76 76 76 76 76 75 75 75 75 75 75 75 75 75 75 75 75 75 75 75 74 74 74 74 74 74 74 74 74 74 74 74 73 73 73 73 73 73 73 73 73 73 73 73 72 72 72 72 72 72 72 72 72 72 72 72 71 71 71 71 71 71 71 71 71 70 70 70 70 70 70 70 70 70 70 70 70 69 69 69 69 69 69 69 69 69 68 68 68 68 68 68 68 68 68 237 213 213 237 213 213 237 213 213 237 213 213 237 214 214 237 214 214 238 214 214 238 214 214 238 214 214 238 214 214 238 214 214 238 214 214 238 214 214 238 214 214 238 215 215 238 215 215 238 215 215 238 215 215 238 215 215 238 215 215 238 215 215 238 215 215 238 215 215 238 215 215 238 215 215 238 215 215 238 215 215 238 214 214 238 214 214 238 214 214 238 214 214 238 214 214 238 214 214 238 214 214 238 214 214 238 214 214 238 214 214 238 214 214 238 214 214 238 214 214 238 214 214 237 214 214 237 214 214 237 214 214 237 213 213 237 213 213 237 213 213 237 213 213 237 213 213 237 213 213 
79 79 79 79 79 79 79 79 79 79 79 79 79 79 79 79 79 79 78 78 78 78 78 78 78 78 78 78 78 78 78 78 78 77 77 77 77 77 77 77 77 77 77 77 77 76 76 76 76 76 76 76 76 76 76 76 76 76 76 76 75 75 75 75 75 75 75 75 75 75 75 75 74 74 74 74 74 74 74 74 74 74 74 74 74 74 74 73 73 73 73 73 73 73 73 73 73 73 73 72 72 72 72 72 72 72 72 72 71 71 71 71 71 71 71 71 71 71 71 71 70 70 70 70 70 70 70 70 70 70 70 70 69 69 69 69 69 69 69 69 69 68 68 68 68 68 68 68 68 68 236 213 213 236 213 213 237 213 213 237 213 213 237 213 213 237 213 213 237 214 214 237 214 214 237 214 214 238 214 214 238 214 214 238 214 214 238 214 214 238 214 214 238 214 214 238 214 214 238 214 214 238 214 214 238 214 214 238 214 214 238 214 214 238 214 214 238 214 214 238 214 214 238 214 214 238 214 214 238 214 214 238 214 214 238 214 214 238 214 214 238 214 214 238 214 214 238 214 214 238 214 214 238 214 214 238 214 214 237 214 214 237 214 214 237 214 214 237 214 214 237 213 213 237 213 213 237 213 213 237 213 213 237 213 213 237 213 213 237 213 213 237 213 213 236 213 213 236 213 213 
79 79 79 79 79 79 79 79 79 79 79 79 79 79 79 78 78 78 78 78 78 78 78 78 78 78 78 78 78 78 77 77 77 77 77 77 77 77 77 77 77 77 77 77 77 76 76 76 76 76 76 76 76 76 76 76 76 76 76 76 75 75 75 75 75 75 75 75 75 75 75 75 74 74 74 74 74 74 74 74 74 74 74 74 73 73 73 73 73 73 73 73 73 73 73 73 72 72 72 72 72 72 72 72 72 72 72 72 71 71 71 71 71 71 71 71 71 71 71 71 70 70 70 70 70 70 70 70 70 69 69 69 69 69 69 69 69 69 69 69 69 68 68 68 68 68 68 68 68 68 236 212 212 236 212 212 236 213 213 236 213 213 237 213 213 237 213 213 237 213 213 237 213 213 237 213 213 237 213 213 237 214 214 237 214 214 237 214 214 238 214 214 238 214 214 238 214 214 238 214 214 238 214 214 238 214 214 238 214 214 238 214 214 238 214 214 238 214 214 238 214 214 238 214 214 238 214 214 238 214 214 238 214 214 238 214 214 238 214 214 237 214 214 237 214 214 237 214 214 237 214 214 237 214 214 237 213 213 237 213 213 237 213 213 237 213 213 237 213 213 237 213 213 237 213 213 237 213 213 237 213 213 237 213 213 236 213 213 236 213 213 236 213 213 236 213 213 236 212 212 
79 79 79 79 79 79 79 79 79 79 79 79 78 78 78 78 78 78 78 78 78 78 78 78 78 78 78 78 78 78 77 77 77 77 77 77 77 77 77 77 77 77 76 76 76 76 76 76 76 76 76 76 76 76 76 76 76 75 75 75 75 75 75 75 75 75 75 75 75 74 74 74 74 74 74 74 74 74 74 74 74 74 74 74 73 73 73 73 73 73 73 73 73 73 73 73 72 72 72 72 72 72 72 72 72 72 72 72 71 71 71 71 71 71 71 71 71 70 70 70 70 70 70 70 70 70 70 70 70 69 69 69 69 69 69 69 69 69 68 68 68 68 68 68 68 68 68 68 68 68 235 212 212 235 212 212 236 212 212 236 212 212 236 212 212 236 213 213 236 213 213 237 213 213 237 213 213 237 213 213 237 213 213 237 213 213 237 213 213 237 213 213 237 213 213 237 213 213 237 214 214 237 214 214 237 214 214 237 214 214 237 214 214 237 214 214 237 214 214 237 214 214 237 214 214 237 214 214 237 214 214 237 214 214 237 213 213 237 213 213 237 213 213 237 213 213 237 213 213 237 213 213 237 213 213 237 213 213 237 213 213 237 213 213 237 213 213 237 213 213 237 213 213 236 213 213 236 213 213 236 213 213 236 213 213 236 213 213 236 212 212 236 212 212 236 212 212 236 212 212 
79 79 79 79 79 79 79 79 79 79 79 79 78 78 78 78 78 78 78 78 78 78 78 78 78 78 78 77 77 77 77 77 77 77 77 77 77 77 77 77 77 77 76 76 76 76 76 76 76 76 76 76 76 76 76 76 76 75 75 75 75 75 75 75 75 75 75 75 75 74 74 74 74 74 74 74 74 74 74 74 74 73 73 73 73 73 73 73 73 73 73 73 73 72 72 72 72 72 72 72 72 72 72 72 72 71 71 71 71 71 71 71 71 71 71 71 71 70 70 70 70 70 70 70 70 70 70 70 70 69 69 69 69 69 69 69 69 69 68 68 68 68 68 68 68 68 68 67 67 67 235 211 211 235 212 212 235 212 212 235 212 212 236 212 212 236 212 212 236 212 212 236 213 213 236 213 213 236 213 213 236 213 213 237 213 213 237 213 213 237 213 213 237 213 213 237 213 213 237 213 213 237 213 213 237 213 213 237 213 213 237 213 213 237 213 213 237 213 213 237 213 213 237 213 213 237 213 213 237 213 213 237 213 213 237 213 213 237 213 213 237 213 213 237 213 213 237 213 213 237 213 213 237 213 213 237 213 213 236 213 213 236 213 213 236 213 213 236 213 213 236 213 213 236 213 213 236 212 212 236 212 212 236 212 212 236 212 212 236 212 212 236 212 212 236 212 212 235 212 212 
79 79 79 79 79 79 79 79 79 78 78 78 78 78 78 78 78 78 78 78 78 78 78 78 77 77 77 77 77 77 77 77 77 77 77 77 77 77 77 76 76 76 76 76 76 76 76 76 76 76 76 76 76 76 75 75 75 75 75 75 75 75 75 75 75 75 75 75 75 74 74 74 74 74 74 74 74 74 74 74 74 73 73 73 73 73 73 73 73 73 73 73 73 72 72 72 72 72 72 72 72 72 72 72 72 71 71 71 71 71 71 71 71 71 71 71 71 70 70 70 70 70 70 70 70 70 69 69 69 69 69 69 69 69 69 69 69 69 68 68 68 68 68 68 68 68 68 67 67 67 234 211 211 235 211 211 235 211 211 235 212 212 235 212 212 235 212 212 236 212 212 236 212 212 236 212 212 236 212 212 236 212 212 236 213 213 236 213 213 236 213 213 236 213 213 236 213 213 236 213 213 236 213 213 237 213 213 237 213 213 237 213 213 237 213 213 237 213 213 237 213 213 237 213 213 237 213 213 237 213 213 237 213 213 236 213 213 236 213 213 236 213 213 236 213 213 236 213 213 236 213 213 236 213 213 236 213 213 236 212 212 236 212 212 236 212 212 236 212 212 236 212 212 236 212 212 236 212 212 236 212 212 236 212 212 235 212 212 235 212 212 235 212 212 235 212 212 235 212 212 
79 79 79 79 79 79 79 79 79 78 78 78 78 78 78 78 78 78 78 78 78 78 78 78 77 77 77 77 77 77 77 77 77 77 77 77 77 77 77 76 76 76 76 76 76 76 76 76 76 76 76 76 76 76 75 75 75 75 75 75 75 75 75 75 75 75 74 74 74 74 74 74 74 74 74 74 74 74 73 73 73 73 73 73 73 73 73 73 73 73 72 72 72 72 72 72 72 72 72 72 72 72 71 71 71 71 71 71 71 71 71 71 71 71 70 70 70 70 70 70 70 70 70 70 70 70 69 69 69 69 69 69 69 69 69 68 68 68 68 68 68 68 68 68 68 68 68 67 67 67 234 211 211 234 211 211 234 211 211 235 211 211 235 211 211 235 211 211 235 212 212 235 212 212 235 212 212 236 212 212 236 212 212 236 212 212 236 212 212 236 212 212 236 212 212 236 212 212 236 212 212 236 212 212 236 213 213 236 213 213 236 213 213 236 213 213 236 213 213 236 213 213 236 213 213 236 213 213 236 213 213 236 213 213 236 212 212 236 212 212 236 212 212 236 212 212 236 212 212 236 212 212 236 212 212 236 212 212 236 212 212 236 212 212 236 212 212 236 212 212 236 212 212 235 212 212 235 212 212 235 212 212 235 212 212 235 212 212 235 212 212 235 212 212 235 211 211 235 211 211 
79 79 79 79 79 79 78 78 78 78 78 78 78 78 78 78 78 78 78 78 78 77 77 77 77 77 77 77 77 77 77 77 77 77 77 77 76 76 76 76 76 76 76 76 76 76 76 76 76 76 76 75 75 75 75 75 75 75 75 75 75 75 75 75 75 75 74 74 74 74 74 74 74 74 74 74 74 74 73 73 73 73 73 73 73 73 73 73 73 73 72 72 72 72 72 72 72 72 72 72 72 72 71 71 71 71 71 71 71 71 71 71 71 71 70 70 70 70 70 70 70 70 70 70 70 70 69 69 69 69 69 69 69 69 69 68 68 68 68 68 68 68 68 68 68 68 68 67 67 67 233 210 210 234 210 210 234 211 211 234 211 211 234 211 211 235 211 211 235 211 211 235 211 211 235 211 211 235 212 212 235 212 212 235 212 212 235 212 212 235 212 212 236 212 212 236 212 212 236 212 212 236 212 212 236 212 212 236 212 212 236 212 212 236 212 212 236 212 212 236 212 212 236 212 212 236 212 212 236 212 212 236 212 212 236 212 212 236 212 212 236 212 212 236 212 212 236 212 212 236 212 212 236 212 212 235 212 212 235 212 212 235 212 212 235 212 212 235 212 212 235 212 212 235 212 212 235 212 212 235 211 211 235 211 211 235 211 211 235 211 211 235 211 211 235 211 211 235 211 211 
79 79 79 78 78 78 78 78 78 78 78 78 78 78 78 78 78 78 78 78 78 77 77 77 77 77 77 77 77 77 77 77 77 77 77 77 76 76 76 76 76 76 76 76 76 76 76 76 75 75 75 75 75 75 75 75 75 75 75 75 75 75 75 74 74 74 74 74 74 74 74 74 74 74 74 73 73 73 73 73 73 73 73 73 73 73 73 73 73 73 72 72 72 72 72 72 72 72 72 72 72 72 71 71 71 71 71 71 71 71 71 71 71 71 70 70 70 70 70 70 14 144 72 14 140 70 13 132 66 12 122 61 69 69 69 68 68 68 68 68 68 68 68 68 67 67 67 67 67 67 233 210 210 233 210 210 233 210 210 234 210 210 234 210 210 234 211 211 234 211 211 234 211 211 235 211 211 235 211 211 235 211 211 235 211 211 235 211 211 235 212 212 235 212 212 235 212 212 235 212 212 235 212 212 235 212 212 235 212 212 235 212 212 235 212 212 235 212 212 235 212 212 235 212 212 235 212 212 235 212 212 235 212 212 235 212 212 235 212 212 235 212 212 235 212 212 235 212 212 235 212 212 235 212 212 235 212 212 235 212 212 235 212 212 235 211 211 235 211 211 235 211 211 235 211 211 235 211 211 235 211 211 235 211 211 235 211 211 234 211 211 234 211 211 234 211 211 234 211 211 
79 79 79 78 78 78 78 78 78 78 78 78 78 78 78 78 78 78 77 77 77 77 77 77 77 77 77 77 77 77 77 77 77 76 76 76 76 76 76 76 76 76 76 76 76 76 76 76 75 75 75 75 75 75 75 75 75 75 75 75 75 75 75 74 74 74 74 74 74 74 74 74 74 74 74 73 73 73 73 73 73 73 73 73 73 73 73 72 72 72 72 72 72 72 72 72 72 72 72 71 71 71 71 71 71 71 71 71 17 171 86 17 173 86 17 170 85 17 166 83 16 161 81 16 155 78 15 148 74 14 140 70 13 131 66 12 121 60 11 108 54 9 91 46 67 67 67 67 67 67 233 209 209 233 209 209 233 210 210 233 210 210 233 210 210 234 210 210 234 210 210 234 211 211 234 211 211 234 211 211 234 211 211 234 211 211 235 211 211 235 211 211 235 211 211 235 211 211 235 211 211 235 211 211 235 211 211 235 211 211 235 211 211 235 212 212 235 212 212 235 212 212 235 212 212 235 212 212 235 212 212 235 212 212 235 211 211 235 211 211 235 211 211 235 211 211 235 211 211 235 211 211 235 211 211 235 211 211 235 211 211 235 211 211 235 211 211 235 211 211 234 211 211 234 211 211 234 211 211 234 211 211 234 211 211 234 211 211 234 211 211 234 211 211 234 211 211 234 211 211 
78 78 78 78 78 78 78 78 78 78 78 78 78 78 78 77 77 77 77 77 77 77 77 77 77 77 77 77 77 77 76 76 76 76 76 76 76 76 76 76 76 76 76 76 76 75 75 75 75 75 75 75 75 75 75 75 75 75 75 75 74 74 74 74 74 74 74 74 74 74 74 74 73 73 73 73 73 73 73 73 73 73 73 73 73 73 73 72 72 72 72 72 72 72 72 72 72 72 72 71 71 71 18 183 92 19 185 93 18 184 92 18 181 91 18 177 89 17 173 86 17 167 84 16 161 80 15 154 77 15 147 73 14 138 69 13 129 65 12 119 60 11 108 54 9 94 47 7 75 37 232 209 209 232 209 209 233 209 209 233 209 209 233 210 210 233 210 210 233 210 210 233 210 210 234 210 210 234 210 210 234 211 211 234 211 211 234 211 211 234 211 211 234 211 211 234 211 211 234 211 211 234 211 211 235 211 211 235 211 211 235 211 211 235 211 211 235 211 211 235 211 211 235 211 211 235 211 211 235 211 211 235 211 211 235 211 211 235 211 211 235 211 211 235 211 211 235 211 211 234 211 211 234 211 211 234 211 211 234 211 211 234 211 211 234 211 211 234 211 211 234 211 211 234 211 211 234 211 211 234 211 211 234 211 211 234 210 210 234 210 210 234 210 210 234 210 210 234 210 210 
78 78 78 78 78 78 78 78 78 78 78 78 78 78 78 77 77 77 77 77 77 77 77 77 77 77 77 77 77 77 76 76 76 76 76 76 76 76 76 76 76 76 76 76 76 75 75 75 75 75 75 75 75 75 75 75 75 75 75 75 74 74 74 74 74 74 74 74 74 74 74 74 73 73 73 73 73 73 73 73 73 73 73 73 72 72 72 72 72 72 72 72 72 72 72 72 18 184 92 19 192 96 19 193 97 19 192 96 19 189 94 19 185 93 18 181 90 18 176 88 17 170 85 16 164 82 16 157 78 15 150 75 14 142 71 13 133 67 12 124 62 11 114 57 10 102 51 9 89 44 7 72 36 232 209 209 232 209 209 232 209 209 233 209 209 233 209 209 233 210 210 233 210 210 233 210 210 233 210 210 233 210 210 234 210 210 234 210 210 234 210 210 234 210 210 234 211 211 234 211 211 234 211 211 234 211 211 234 211 211 234 211 211 234 211 211 234 211 211 234 211 211 234 211 211 234 211 211 234 211 211 234 211 211 234 211 211 234 211 211 234 211 211 234 211 211 234 211 211 234 211 211 234 211 211 234 211 211 234 211 211 234 211 211 234 211 211 234 210 210 234 210 210 234 210 210 234 210 210 234 210 210 234 210 210 234 210 210 233 210 210 233 210 210 233 210 210 233 210 210 
78 78 78 78 78 78 78 78 78 78 78 78 77 77 77 77 77 77 77 77 77 77 77 77 77 77 77 76 76 76 76 76 76 76 76 76 76 76 76 76 76 76 75 75 75 75 75 75 75 75 75 75 75 75 75 75 75 74 74 74 74 74 74 74 74 74 74 74 74 74 74 74 73 73 73 73 73 73 73 73 73 73 73 73 72 72 72 72 72 72 72 72 72 19 191 96 20 197 99 20 198 99 20 197 98 19 194 97 19 191 95 19 187 93 18 182 91 18 177 88 17 171 86 16 165 82 16 158 79 15 151 76 14 143 72 14 135 68 13 126 63 12 117 58 11 106 53 9 95 47 8 81 41 6 65 32 4 39 20 232 209 209 232 209 209 232 209 209 232 209 209 233 209 209 233 209 209 233 210 210 233 210 210 233 210 210 233 210 210 233 210 210 233 210 210 234 210 210 234 210 210 234 210 210 234 210 210 234 210 210 234 210 210 234 210 210 234 210 210 234 210 210 234 210 210 234 210 210 234 210 210 234 210 210 234 210 210 234 210 210 234 210 210 234 210 210 234 210 210 234 210 210 234 210 210 234 210 210 234 210 210 234 210 210 234 210 210 234 210 210 233 210 210 233 210 210 233 210 210 233 210 210 233 210 210 233 210 210 233 210 210 233 210 210 233 210 210 233 210 210 
78 78 78 78 78 78 78 78 78 77 77 77 77 77 77 77 77 77 77 77 77 77 77 77 77 77 77 76 76 76 76 76 76 76 76 76 76 76 76 76 76 76 75 75 75 75 75 75 75 75 75 75 75 75 74 74 74 74 74 74 74 74 74 74 74 74 74 74 74 73 73 73 73 73 73 73 73 73 73 73 73 72 72 72 72 72 72 72 72 72 19 193 97 20 200 100 20 201 101 20 200 100 20 198 99 20 195 98 19 191 96 19 187 93 18 182 91 18 177 88 17 171 86 16 165 82 16 158 79 15 151 76 14 144 72 14 136 68 13 127 64 12 118 59 11 108 54 10 97 49 9 85 43 7 71 36 5 54 27 3 28 14 232 208 208 232 209 209 232 209 209 232 209 209 232 209 209 232 209 209 233 209 209 233 209 209 233 210 210 233 210 210 233 210 210 233 210 210 233 210 210 233 210 210 233 210 210 233 210 210 233 210 210 233 210 210 233 210 210 233 210 210 233 210 210 233 210 210 233 210 210 233 210 210 233 210 210 233 210 210 233 210 210 233 210 210 233 210 210 233 210 210 233 210 210 233 210 210 233 210 210 233 210 210 233 210 210 233 210 210 233 210 210 233 210 210 233 210 210 233 210 210 233 210 210 233 210 210 233 210 210 233 209 209 233 209 209 233 209 209 
78 78 78 78 78 78 78 78 78 77 77 77 77 77 77 77 77 77 77 77 77 77 77 77 76 76 76 76 76 76 76 76 76 76 76 76 76 76 76 75 75 75 75 75 75 75 75 75 75 75 75 75 75 75 74 74 74 74 74 74 74 74 74 74 74 74 73 73 73 73 73 73 73 73 73 73 73 73 73 73 73 72 72 72 72 72 72 19 191 96 20 201 101 20 203 102 20 203 101 20 201 100 20 198 99 19 195 97 19 191 95 19 186 93 18 181 91 18 176 88 17 170 85 16 164 82 16 158 79 15 151 75 14 143 72 14 136 68 13 127 64 12 118 59 11 109 54 10 99 49 9 87 44 7 75 37 6 60 30 4 42 21 3 26 13 231 208 208 231 208 208 232 209 209 232 209 209 232 209 209 232 209 209 232 209 209 232 209 209 232 209 209 233 209 209 233 209 209 233 209 209 233 210 210 233 210 210 233 210 210 233 210 210 233 210 210 233 210 210 233 210 210 233 210 210 233 210 210 233 210 210 233 210 210 233 210 210 233 210 210 233 210 210 233 210 210 233 210 210 233 210 210 233 210 210 233 210 210 233 210 210 233 210 210 233 210 210 233 210 210 233 209 209 233 209 209 233 209 209 233 209 209 233 209 209 232 209 209 232 209 209 232 209 209 232 209 209 232 209 209 
78 78 78 78 78 78 77 77 77 77 77 77 77 77 77 77 77 77 77 77 77 76 76 76 76 76 76 76 76 76 76 76 76 76 76 76 76 76 76 75 75 75 75 75 75 75 75 75 75 75 75 74 74 74 74 74 74 74 74 74 74 74 74 74 74 74 73 73 73 73 73 73 73 73 73 73 73 73 72 72 72 72 72 72 72 72 72 20 200 100 20 204 102 20 204 102 20 203 101 20 200 100 20 197 99 19 194 97 19 190 95 18 185 92 18 180 90 17 175 87 17 169 84 16 163 81 16 156 78 15 149 75 14 142 71 13 135 67 13 126 63 12 118 59 11 109 54 10 99 49 9 88 44 8 76 38 6 63 31 5 47 23 3 26 13 231 208 208 231 208 208 231 208 208 231 208 208 232 208 208 232 208 208 232 209 209 232 209 209 232 209 209 232 209 209 232 209 209 232 209 209 232 209 209 232 209 209 232 209 209 233 209 209 233 209 209 233 209 209 233 209 209 233 209 209 233 209 209 233 209 209 233 209 209 233 209 209 233 209 209 233 209 209 233 209 209 233 209 209 233 209 209 233 209 209 233 209 209 233 209 209 233 209 209 232 209 209 232 209 209 232 209 209 232 209 209 232 209 209 232 209 209 232 209 209 232 209 209 232 209 209 232 209 209 232 209 209 232 209 209 
78 78 78 77 77 77 77 77 77 77 77 77 77 77 77 77 77 77 77 77 77 76 76 76 76 76 76 76 76 76 76 76 76 76 76 76 75 75 75 75 75 75 75 75 75 75 75 75 75 75 75 74 74 74 74 74 74 74 74 74 74 74 74 73 73 73 73 73 73 73 73 73 73 73 73 73 73 73 72 72 72 72 72 72 20 196 98 20 202 101 20 204 102 20 203 102 20 202 101 20 199 99 20 196 98 19 192 96 19 188 94 18 183 92 18 178 89 17 173 86 17 167 83 16 161 80 15 154 77 15 148 74 14 140 70 13 133 66 12 125 62 12 116 58 11 107 54 10 98 49 9 87 44 8 76 38 6 63 32 5 49 24 3 31 16 3 26 13 231 207 207 231 208 208 231 208 208 231 208 208 231 208 208 231 208 208 231 208 208 232 208 208 232 209 209 232 209 209 232 209 209 232 209 209 232 209 209 232 209 209 232 209 209 232 209 209 232 209 209 232 209 209 232 209 209 232 209 209 232 209 209 232 209 209 232 209 209 232 209 209 232 209 209 232 209 209 232 209 209 232 209 209 232 209 209 232 209 209 232 209 209 232 209 209 232 209 209 232 209 209 232 209 209 232 209 209 232 209 209 232 209 209 232 209 209 232 209 209 232 209 209 232 209 209 232 208 208 232 208 208 
78 78 78 77 77 77 77 77 77 77 77 77 77 77 77 77 77 77 76 76 76 76 76 76 76 76 76 76 76 76 76 76 76 75 75 75 75 75 75 75 75 75 75 75 75 75 75 75 74 74 74 74 74 74 74 74 74 74 74 74 74 74 74 73 73 73 73 73 73 73 73 73 73 73 73 72 72 72 72 72 72 18 181 90 20 199 99 20 202 101 20 203 101 20 202 101 20 200 100 20 197 98 19 193 97 19 190 95 19 185 93 18 181 90 18 176 88 17 170 85 16 164 82 16 158 79 15 152 76 15 145 73 14 138 69 13 131 65 12 123 61 11 115 57 11 106 53 10 96 48 9 86 43 8 75 38 6 63 32 5 49 25 3 33 17 3 26 13 230 207 207 230 207 207 230 207 207 231 208 208 231 208 208 231 208 208 231 208 208 231 208 208 231 208 208 231 208 208 231 208 208 231 208 208 232 208 208 232 208 208 232 209 209 232 209 209 232 209 209 232 209 209 232 209 209 232 209 209 232 209 209 232 209 209 232 209 209 232 209 209 232 209 209 232 209 209 232 209 209 232 209 209 232 209 209 232 209 209 232 209 209 232 209 209 232 209 209 232 209 209 232 209 209 232 208 208 232 208 208 232 208 208 232 208 208 231 208 208 231 208 208 231 208 208 231 208 208 231 208 208 
77 77 77 77 77 77 77 77 77 77 77 77 77 77 77 76 76 76 76 76 76 76 76 76 76 76 76 76 76 76 76 76 76 75 75 75 75 75 75 75 75 75 75 75 75 75 75 75 74 74 74 74 74 74 74 74 74 74 74 74 73 73 73 73 73 73 73 73 73 73 73 73 73 73 73 72 72 72 72 72 72 19 191 96 20 199 99 20 201 100 20 201 100 20 199 100 20 197 99 19 194 97 19 191 95 19 187 93 18 182 91 18 178 89 17 173 86 17 167 84 16 162 81 16 156 78 15 149 75 14 143 71 14 136 68 13 128 64 12 120 60 11 112 56 10 103 52 9 94 47 8 84 42 7 74 37 6 62 31 5 49 24 3 34 17 3 26 13 3 26 13 230 207 207 230 207 207 230 207 207 230 207 207 230 207 207 231 207 207 231 208 208 231 208 208 231 208 208 231 208 208 231 208 208 231 208 208 231 208 208 231 208 208 231 208 208 231 208 208 231 208 208 231 208 208 231 208 208 231 208 208 231 208 208 231 208 208 231 208 208 231 208 208 231 208 208 231 208 208 231 208 208 231 208 208 231 208 208 231 208 208 231 208 208 231 208 208 231 208 208 231 208 208 231 208 208 231 208 208 231 208 208 231 208 208 231 208 208 231 208 208 231 208 208 231 208 208 231 208 208 
77 77 77 77 77 77 77 77 77 77 77 77 77 77 77 76 76 76 76 76 76 76 76 76 76 76 76 76 76 76 75 75 75 75 75 75 75 75 75 75 75 75 75 75 75 74 74 74 74 74 74 74 74 74 74 74 74 74 74 74 73 73 73 73 73 73 73 73 73 73 73 73 72 72 72 72 72 72 72 72 72 19 192 96 20 197 99 20 199 99 20 198 99 20 197 98 19 194 97 19 191 96 19 188 94 18 184 92 18 179 90 17 175 87 17 170 85 16 164 82 16 158 79 15 152 76 15 146 73 14 140 70 13 133 66 13 125 63 12 117 59 11 109 55 10 101 50 9 92 46 8 82 41 7 71 36 6 60 30 5 47 24 3 33 16 3 26 13 3 26 13 229 206 206 229 207 207 230 207 207 230 207 207 230 207 207 230 207 207 230 207 207 230 207 207 230 207 207 231 207 207 231 208 208 231 208 208 231 208 208 231 208 208 231 208 208 231 208 208 231 208 208 231 208 208 231 208 208 231 208 208 231 208 208 231 208 208 231 208 208 231 208 208 231 208 208 231 208 208 231 208 208 231 208 208 231 208 208 231 208 208 231 208 208 231 208 208 231 208 208 231 208 208 231 208 208 231 208 208 231 208 208 231 208 208 231 208 208 231 208 208 231 208 208 231 208 208 231 208 208 
77 77 77 77 77 77 77 77 77 77 77 77 76 76 76 76 76 76 76 76 76 76 76 76 76 76 76 75 75 75 75 75 75 75 75 75 75 75 75 75 75 75 74 74 74 74 74 74 74 74 74 74 74 74 74 74 74 73 73 73 73 73 73 73 73 73 73 73 73 73 73 73 72 72 72 72 72 72 18 175 88 19 191 95 19 195 97 20 196 98 19 195 97 19 193 97 19 191 95 19 188 94 18 184 92 18 180 90 18 176 88 17 171 86 17 166 83 16 161 80 15 155 77 15 149 74 14 143 71 14 136 68 13 129 65 12 122 61 11 114 57 11 106 53 10 98 49 9 89 44 8 79 39 7 68 34 6 57 29 4 45 22 3 31 15 3 26 13 3 26 13 229 206 206 229 206 206 229 206 206 229 206 206 229 207 207 230 207 207 230 207 207 230 207 207 230 207 207 230 207 207 230 207 207 230 207 207 230 207 207 230 207 207 230 207 207 230 207 207 231 207 207 231 208 208 231 208 208 231 208 208 231 208 208 231 208 208 231 208 208 231 208 208 231 208 208 231 208 208 231 208 208 231 208 208 231 208 208 231 208 208 231 208 208 231 208 208 231 208 208 231 208 208 231 208 208 231 207 207 230 207 207 230 207 207 230 207 207 230 207 207 230 207 207 230 207 207 230 207 207 
77 77 77 77 77 77 77 77 77 76 76 76 76 76 76 76 76 76 76 76 76 76 76 76 76 76 76 75 75 75 75 75 75 75 75 75 75 75 75 75 75 75 74 74 74 74 74 74 74 74 74 74 74 74 74 74 74 73 73 73 73 73 73 73 73 73 73 73 73 72 72 72 72 72 72 72 72 72 18 178 89 19 188 94 19 191 96 19 192 96 19 191 96 19 189 95 19 187 93 18 184 92 18 180 90 18 176 88 17 172 86 17 167 84 16 162 81 16 157 78 15 151 76 15 145 73 14 139 69 13 132 66 13 125 63 12 118 59 11 111 55 10 103 51 9 94 47 9 85 43 8 75 38 7 65 33 5 54 27 4 42 21 3 28 14 3 26 13 3 26 13 3 26 13 229 206 206 229 206 206 229 206 206 229 206 206 229 206 206 229 206 206 229 206 206 230 207 207 230 207 207 230 207 207 230 207 207 230 207 207 230 207 207 230 207 207 230 207 207 230 207 207 230 207 207 230 207 207 230 207 207 230 207 207 230 207 207 230 207 207 230 207 207 230 207 207 230 207 207 230 207 207 230 207 207 230 207 207 230 207 207 230 207 207 230 207 207 230 207 207 230 207 207 230 207 207 230 207 207 230 207 207 230 207 207 230 207 207 230 207 207 230 207 207 230 207 207 230 207 207 
77 77 77 77 77 77 77 77 77 76 76 76 76 76 76 76 76 76 76 76 76 76 76 76 75 75 75 75 75 75 75 75 75 75 75 75 75 75 75 74 74 74 74 74 74 74 74 74 74 74 74 74 74 74 73 73 73 73 73 73 73 73 73 73 73 73 73 73 73 72 72 72 72 72 72 72 72 72 18 176 88 18 185 92 19 187 94 19 188 94 19 187 94 19 185 93 18 183 91 18 180 90 18 176 88 17 172 86 17 168 84 16 163 81 16 158 79 15 153 76 15 147 73 14 141 71 13 135 67 13 128 64 12 121 61 11 114 57 11 107 53 10 99 49 9 90 45 8 81 41 7 72 36 6 61 31 5 50 25 4 38 19 3 26 13 3 26 13 3 26 13 3 26 13 228 205 205 228 205 205 228 206 206 229 206 206 229 206 206 229 206 206 229 206 206 229 206 206 229 206 206 229 206 206 229 206 206 229 206 206 230 207 207 230 207 207 230 207 207 230 207 207 230 207 207 230 207 207 230 207 207 230 207 207 230 207 207 230 207 207 230 207 207 230 207 207 230 207 207 230 207 207 230 207 207 230 207 207 230 207 207 230 207 207 230 207 207 230 207 207 230 207 207 230 207 207 230 207 207 230 207 207 230 207 207 230 207 207 230 207 207 230 207 207 230 207 207 230 207 207 
77 77 77 77 77 77 76 76 76 76 76 76 76 76 76 76 76 76 76 76 76 76 76 76 75 75 75 75 75 75 75 75 75 75 75 75 75 75 75 74 74 74 74 74 74 74 74 74 74 74 74 74 74 74 73 73 73 73 73 73 73 73 73 73 73 73 72 72 72 72 72 72 72 72 72 72 72 72 17 172 86 18 180 90 18 183 91 18 183 92 18 182 91 18 181 90 18 178 89 17 175 87 17 171 86 17 167 84 16 163 82 16 158 79 15 153 77 15 148 74 14 142 71 14 137 68 13 130 65 12 124 62 12 117 58 11 110 55 10 102 51 9 94 47 9 86 43 8 77 38 7 67 34 6 57 29 5 46 23 3 34 17 3 26 13 3 26 13 3 26 13 3 26 13 228 205 205 228 205 205 228 205 205 228 205 205 228 205 205 228 206 206 228 206 206 229 206 206 229 206 206 229 206 206 229 206 206 229 206 206 229 206 206 229 206 206 229 206 206 229 206 206 229 206 206 229 206 206 229 206 206 229 206 206 229 207 207 229 207 207 230 207 207 230 207 207 230 207 207 230 207 207 230 207 207 230 207 207 230 207 207 230 207 207 230 207 207 229 207 207 229 207 207 229 207 207 229 206 206 229 206 206 229 206 206 229 206 206 229 206 206 229 206 206 229 206 206 229 206 206 
77 77 77 76 76 76 76 76 76 76 76 76 76 76 76 76 76 76 76 76 76 75 75 75 75 75 75 75 75 75 75 75 75 75 75 75 74 74 74 74 74 74 74 74 74 74 74 74 74 74 74 73 73 73 73 73 73 73 73 73 73 73 73 73 73 73 72 72 72 72 72 72 72 72 72 72 72 72 17 167 83 18 175 88 18 178 89 18 178 89 18 177 89 18 176 88 17 173 87 17 170 85 17 166 83 16 163 81 16 158 79 15 154 77 15 149 74 14 143 72 14 138 69 13 132 66 13 126 63 12 119 60 11 112 56 11 105 53 10 98 49 9 90 45 8 81 41 7 72 36 6 63 31 5 53 26 4 42 21 3 29 15 3 26 13 3 26 13 3 26 13 3 26 13 227 204 204 227 205 205 227 205 205 228 205 205 228 205 205 228 205 205 228 205 205 228 205 205 228 205 205 228 206 206 228 206 206 229 206 206 229 206 206 229 206 206 229 206 206 229 206 206 229 206 206 229 206 206 229 206 206 229 206 206 229 206 206 229 206 206 229 206 206 229 206 206 229 206 206 229 206 206 229 206 206 229 206 206 229 206 206 229 206 206 229 206 206 229 206 206 229 206 206 229 206 206 229 206 206 229 206 206 229 206 206 229 206 206 229 206 206 229 206 206 229 206 206 229 206 206 
77 77 77 76 76 76 76 76 76 76 76 76 76 76 76 76 76 76 75 75 75 75 75 75 75 75 75 75 75 75 75 75 75 74 74 74 74 74 74 74 74 74 74 74 74 74 74 74 73 73 73 73 73 73 73 73 73 73 73 73 73 73 73 72 72 72 72 72 72 72 72 72 72 72 72 72 72 72 16 160 80 17 169 85 17 172 86 86 173 86 17 172 86 17 170 85 17 168 84 16 165 82 16 161 81 16 157 79 15 153 77 15 148 74 14 143 72 14 138 69 13 133 66 13 127 63 12 121 60 11 114 57 11 107 54 10 100 50 9 92 46 8 85 42 8 76 38 7 67 34 6 58 29 24 47 24 18 36 18 3 26 13 3 26 13 3 26 13 3 26 13 3 26 13 227 204 204 227 204 204 227 204 204 227 204 204 227 205 205 227 205 205 228 205 205 228 205 205 228 205 205 228 205 205 228 205 205 228 205 205 228 205 205 228 205 205 228 206 206 228 206 206 228 206 206 229 206 206 229 206 206 229 206 206 229 206 206 229 206 206 229 206 206 229 206 206 229 206 206 229 206 206 229 206 206 229 206 206 229 206 206 229 206 206 229 206 206 229 206 206 229 206 206 229 206 206 229 206 206 229 206 206 229 206 206 229 206 206 229 206 206 229 206 206 229 206 206 229 206 206 
76 76 76 76 76 76 76 76 76 76 76 76 76 76 76 75 75 75 75 75 75 75 75 75 75 75 75 75 75 75 75 75 75 74 74 74 74 74 74 74 74 74 74 74 74 74 74 74 73 73 73 73 73 73 73 73 73 73 73 73 73 73 73 72 72 72 72 72 72 72 72 72 72 72 72 71 71 71 15 152 76 16 162 81 17 166 83 17 166 83 17 166 83 16 164 82 16 162 81 16 159 80 16 156 78 15 152 76 15 148 74 14 143 71 14 138 69 13 133 66 13 127 64 12 121 61 12 115 58 11 109 54 10 102 51 9 95 47 9 87 44 8 79 40 7 71 35 6 62 31 5 52 26 4 42 21 3 31 15 3 26 13 3 26 13 3 26 13 3 26 13 3 26 13 226 203 203 226 204 204 226 204 204 227 204 204 227 204 204 227 204 204 227 204 204 227 204 204 227 205 205 227 205 205 228 205 205 228 205 205 228 205 205 228 205 205 228 205 205 228 205 205 228 205 205 77 154 15 79 158 16 77 155 15 74 148 15 123 137 14 109 121 12 84 94 9 228 205 205 228 206 206 228 206 206 228 206 206 228 206 206 228 206 206 228 206 206 228 206 206 228 206 206 228 206 206 228 206 206 228 205 205 228 205 205 228 205 205 228 205 205 228 205 205 228 205 205 228 205 205 
76 76 76 76 76 76 76 76 76 76 76 76 76 76 76 75 75 75 75 75 75 75 75 75 75 75 75 75 75 75 74 74 74 74 74 74 74 74 74 74 74 74 74 74 74 73 73 73 73 73 73 73 73 73 73 73 73 73 73 73 72 72 72 72 72 72 72 72 72 72 72 72 72 72 72 71 71 71 14 140 70 15 154 77 16 158 79 16 160 80 16 159 80 16 158 79 16 156 78 15 153 76 15 150 75 15 146 73 14 142 71 14 137 69 13 132 66 13 127 64 12 122 61 12 116 58 11 109 55 10 103 51 10 96 48 9 89 44 8 81 41 7 73 37 6 65 32 6 56 28 5 46 23 4 36 18 3 26 13 3 26 13 3 26 13 3 26 13 3 26 13 3 26 13 226 203 203 226 203 203 226 203 203 226 204 204 226 204 204 226 204 204 227 204 204 227 204 204 227 204 204 227 204 204 227 204 204 227 204 204 227 205 205 227 205 205 227 205 205 86 171 17 90 180 18 91 181 18 90 179 18 87 174 17 84 167 17 79 157 16 131 145 15 117 130 13 99 110 11 71 79 8 228 205 205 228 205 205 228 205 205 228 205 205 228 205 205 228 205 205 228 205 205 228 205 205 228 205 205 228 205 205 228 205 205 228 205 205 228 205 205 228 205 205 228 205 205 228 205 205 
76 76 76 76 76 76 76 76 76 76 76 76 75 75 75 75 75 75 75 75 75 75 75 75 75 75 75 74 74 74 74 74 74 74 74 74 74 74 74 74 74 74 74 74 74 73 73 73 73 73 73 73 73 73 73 73 73 72 72 72 72 72 72 72 72 72 72 72 72 72 72 72 71 71 71 71 71 71 71 71 71 15 145 73 15 151 75 15 152 76 15 152 76 15 151 76 15 149 75 15 146 73 14 143 72 14 140 70 14 135 68 13 131 65 13 126 63 12 121 60 12 115 58 11 110 55 10 103 52 10 97 48 9 90 45 8 83 41 8 75 38 7 67 34 6 59 29 5 49 25 4 40 20 3 29 15 3 26 13 3 26 13 3 26 13 3 26 13 3 26 13 225 202 202 225 203 203 225 203 203 225 203 203 226 203 203 226 203 203 226 203 203 226 204 204 226 204 204 226 204 204 227 204 204 227 204 204 227 204 204 227 204 204 76 151 15 91 183 18 96 191 19 97 194 19 96 193 19 95 189 19 92 184 18 88 176 18 84 167 17 141 156 16 129 143 14 114 127 13 96 107 11 71 79 8 228 205 205 228 205 205 228 205 205 228 205 205 228 205 205 228 205 205 228 205 205 228 205 205 228 205 205 228 205 205 228 205 205 228 205 205 228 205 205 227 205 205 227 205 205 
76 76 76 76 76 76 76 76 76 75 75 75 75 75 75 75 75 75 75 75 75 75 75 75 75 75 75 74 74 74 74 74 74 74 74 74 74 74 74 74 74 74 73 73 73 73 73 73 73 73 73 73 73 73 73 73 73 72 72 72 72 72 72 72 72 72 72 72 72 71 71 71 71 71 71 71 71 71 71 71 71 13 134 67 14 142 71 14 144 72 14 145 72 14 144 72 14 142 71 14 139 70 14 136 68 13 133 66 13 129 64 12 124 62 12 120 60 11 114 57 11 109 54 10 103 52 10 97 48 9 90 45 8 84 42 8 76 38 7 69 34 6 60 30 5 52 26 4 43 21 3 33 16 3 26 13 3 26 13 3 26 13 3 26 13 3 26 13 3 26 13 224 202 202 225 202 202 225 202 202 225 202 202 225 203 203 225 203 203 225 203 203 226 203 203 226 203 203 226 203 203 226 203 203 226 204 204 226 204 204 226 204 204 92 185 18 98 196 20 100 200 20 100 200 20 99 198 20 97 194 19 94 189 19 91 181 18 86 172 17 81 162 16 135 150 15 122 135 14 106 118 12 87 97 10 60 67 7 227 204 204 227 204 204 227 204 204 227 204 204 227 204 204 227 204 204 227 204 204 227 204 204 227 204 204 227 204 204 227 204 204 227 204 204 227 204 204 227 204 204 
76 76 76 76 76 76 76 76 76 75 75 75 75 75 75 75 75 75 75 75 75 75 75 75 74 74 74 74 74 74 74 74 74 74 74 74 74 74 74 73 73 73 73 73 73 73 73 73 73 73 73 73 73 73 72 72 72 72 72 72 72 72 72 72 72 72 72 72 72 71 71 71 71 71 71 71 71 71 71 71 71 12 118 59 13 131 66 14 135 68 14 136 68 14 136 68 13 134 67 13 132 66 13 129 65 13 126 63 12 122 61 12 117 59 11 113 56 11 108 54 10 102 51 10 96 48 9 90 45 8 84 42 8 77 38 7 69 35 6 62 31 5 53 27 4 45 22 4 35 18 3 26 13 3 26 13 3 26 13 3 26 13 3 26 13 3 26 13 3 26 13 0 0 0 224 202 202 224 202 202 224 202 202 225 202 202 225 202 202 225 203 203 225 203 203 225 203 203 225 203 203 26 23 23 26 23 23 26 23 23 89 179 18 97 194 19 100 201 20 102 203 20 101 203 20 100 200 20 98 196 20 95 190 19 92 183 18 87 175 17 82 164 16 138 153 15 125 139 14 111 124 12 94 105 10 73 81 8 42 46 5 227 204 204 227 204 204 227 204 204 227 204 204 227 204 204 227 204 204 227 204 204 227 204 204 227 204 204 227 204 204 227 204 204 227 204 204 227 204 204 
76 76 76 76 76 76 75 75 75 75 75 75 75 75 75 75 75 75 75 75 75 74 74 74 74 74 74 74 74 74 74 74 74 74 74 74 74 74 74 73 73 73 73 73 73 73 73 73 73 73 73 73 73 73 72 72 72 72 72 72 72 72 72 72 72 72 71 71 71 71 71 71 71 71 71 71 71 71 71 71 71 70 70 70 12 118 59 12 125 62 13 127 63 13 127 63 13 126 63 12 124 62 12 121 61 12 118 59 11 114 57 11 110 55 11 105 53 10 100 50 9 95 47 9 89 44 8 83 41 8 76 38 7 69 35 6 62 31 5 54 27 5 46 23 4 37 18 3 27 14 3 26 13 3 26 13 3 26 13 3 26 13 3 26 13 3 26 13 0 0 0 0 0 0 0 0 0 0 0 0 0 0 0 0 0 0 0 0 0 0 0 0 0 0 0 26 23 23 26 23 23 26 23 23 26 23 23 79 157 16 93 187 19 99 198 20 101 202 20 102 204 20 101 203 20 100 200 20 98 196 20 95 190 19 91 183 18 87 174 17 82 165 16 138 153 15 126 140 14 113 126 13 97 108 11 79 87 9 54 60 6 23 26 3 226 204 204 226 204 204 226 204 204 226 204 204 226 204 204 226 204 204 226 204 204 226 204 204 226 204 204 226 204 204 226 204 204 226 204 204 
76 76 76 75 75 75 75 75 75 75 75 75 75 75 75 75 75 75 75 75 75 74 74 74 74 74 74 74 74 74 74 74 74 74 74 74 73 73 73 73 73 73 73 73 73 73 73 73 73 73 73 72 72 72 72 72 72 72 72 72 72 72 72 72 72 72 71 71 71 71 71 71 71 71 71 71 71 71 70 70 70 70 70 70 10 98 49 11 112 56 12 116 58 12 117 59 12 117 58 12 115 58 11 113 56 11 109 55 11 106 53 10 102 51 10 97 49 9 92 46 9 87 43 8 81 40 7 75 37 7 68 34 6 61 31 5 54 27 5 46 23 4 37 19 3 28 14 3 26 13 3 26 13 3 26 13 3 26 13 3 26 13 3 26 13 3 26 13 0 0 0 0 0 0 0 0 0 0 0 0 0 0 0 0 0 0 0 0 0 0 0 0 0 0 0 0 0 0 0 0 0 0 0 0 0 0 0 85 169 17 94 189 19 99 197 20 101 201 20 101 202 20 100 201 20 99 198 20 97 193 19 94 188 19 90 181 18 86 172 17 81 163 16 137 152 15 125 139 14 113 125 13 98 109 11 80 89 9 58 64 6 26 28 3 226 203 203 226 203 203 226 203 203 226 203 203 226 203 203 226 203 203 226 203 203 226 203 203 226 203 203 226 203 203 226 203 203 226 203 203 
75 75 75 75 75 75 75 75 75 75 75 75 75 75 75 75 75 75 74 74 74 74 74 74 74 74 74 74 74 74 74 74 74 73 73 73 73 73 73 73 73 73 73 73 73 73 73 73 72 72 72 72 72 72 157 132 16 149 120 15 132 103 13 110 83 11 78 73 8 155 155 155 155 155 155 154 154 154 154 154 154 154 154 154 154 154 154 9 95 47 10 103 52 11 106 53 11 106 53 11 105 53 10 103 52 10 100 50 10 97 48 9 93 46 9 88 44 8 84 42 8 78 39 7 72 36 7 66 33 6 60 30 5 53 26 4 45 22 4 37 18 3 28 14 3 26 13 3 26 13 3 26 13 3 26 13 3 26 13 3 26 13 3 26 13 0 0 0 0 0 0 0 0 0 0 0 0 0 0 0 0 0 0 0 0 0 0 0 0 0 0 0 0 0 0 0 0 0 0 0 0 0 0 0 0 0 0 85 171 17 93 187 19 97 194 19 99 198 20 99 198 20 99 197 20 97 194 19 95 190 19 92 184 18 88 177 18 84 169 17 80 159 16 74 148 15 123 136 14 110 122 12 96 107 11 79 88 9 58 65 6 30 34 3 226 203 203 226 203 203 226 203 203 226 203 203 226 203 203 226 203 203 226 203 203 226 203 203 226 203 203 226 203 203 226 203 203 226 203 203 
75 75 75 75 75 75 75 75 75 75 75 75 75 75 75 74 74 74 74 74 74 74 74 74 74 74 74 74 74 74 74 74 74 73 73 73 73 73 73 73 73 73 73 73 73 159 159 159 187 166 19 185 157 19 175 142 17 160 126 16 143 108 14 122 90 12 99 70 10 70 48 7 26 22 3 156 156 156 156 156 156 156 156 156 155 155 155 155 155 155 9 86 43 9 92 46 9 94 47 9 94 47 9 93 46 9 90 45 9 87 44 8 83 42 8 79 40 7 74 37 7 69 34 6 63 32 6 57 28 5 50 25 4 43 22 4 35 18 3 27 14 3 26 13 3 26 13 3 26 13 3 26 13 3 26 13 3 26 13 3 26 13 0 0 0 0 0 0 0 0 0 0 0 0 0 0 0 0 0 0 0 0 0 0 0 0 0 0 0 0 0 0 0 0 0 0 0 0 0 0 0 0 0 0 0 0 0 83 167 17 91 182 18 95 189 19 96 192 19 97 193 19 96 192 19 94 189 19 92 184 18 89 179 18 86 172 17 82 164 16 77 154 15 72 144 14 119 132 13 106 118 12 92 103 10 76 84 8 56 62 6 30 33 3 225 203 203 225 203 203 225 203 203 225 203 203 225 203 203 225 203 203 225 203 203 225 203 203 225 203 203 225 203 203 225 203 203 225 203 203 
75 75 75 75 75 75 75 75 75 75 75 75 75 75 75 74 74 74 74 74 74 74 74 74 162 162 162 162 162 162 162 162 162 161 161 161 161 161 161 161 161 161 161 161 161 199 181 20 198 171 20 189 157 19 176 141 18 161 124 16 143 107 14 123 89 12 101 70 10 75 51 7 44 29 4 26 22 3 157 157 157 157 157 157 157 157 157 157 157 157 156 156 156 7 74 37 8 80 40 8 81 41 8 81 40 8 79 39 8 76 38 7 73 36 7 69 34 6 64 32 6 59 29 5 53 26 5 47 23 4 40 20 3 33 16 3 26 13 3 26 13 3 26 13 3 26 13 3 26 13 3 26 13 3 26 13 3 26 13 0 0 0 0 0 0 0 0 0 0 0 0 0 0 0 0 0 0 0 0 0 0 0 0 0 0 0 0 0 0 0 0 0 0 0 0 0 0 0 0 0 0 0 0 0 0 0 0 80 160 16 87 175 17 91 182 18 93 185 19 93 186 19 92 185 18 91 182 18 89 178 18 86 172 17 83 165 17 79 157 16 74 148 15 69 138 14 113 126 13 101 112 11 87 97 10 71 79 8 52 57 6 26 29 3 23 26 3 0 0 0 0 0 0 0 0 0 225 202 202 225 202 202 225 202 202 225 202 202 225 202 202 225 202 202 225 202 202 225 202 202 
75 75 75 165 165 165 165 165 165 165 165 165 165 165 165 164 164 164 164 164 164 164 164 164 164 164 164 163 163 163 163 163 163 163 163 163 163 163 163 162 162 162 200 187 20 203 181 20 196 168 20 186 153 19 172 137 17 157 120 16 139 103 14 119 85 12 97 67 10 73 49 7 44 29 4 26 16 3 159 159 159 159 159 159 158 158 158 158 158 158 158 158 158 157 157 157 6 59 30 6 65 32 7 66 33 7 66 33 6 64 32 6 61 30 6 57 28 5 52 26 5 47 24 4 41 21 4 35 18 3 28 14 3 26 13 3 26 13 3 26 13 3 26 13 3 26 13 3 26 13 3 26 13 3 26 13 0 0 0 0 0 0 0 0 0 0 0 0 0 0 0 0 0 0 0 0 0 0 0 0 0 0 0 0 0 0 0 0 0 0 0 0 0 0 0 0 0 0 0 0 0 0 0 0 0 0 0 74 149 15 82 165 16 86 173 17 88 177 18 89 178 18 88 176 18 87 174 17 85 169 17 82 164 16 79 157 16 75 149 15 70 140 14 65 130 13 106 118 12 94 105 10 80 89 9 64 71 7 45 50 5 23 26 3 23 26 3 0 0 0 0 0 0 0 0 0 0 0 0 0 0 0 0 0 0 0 0 0 0 0 0 0 0 0 0 0 0 225 202 202 
167 167 167 167 167 167 166 166 166 166 166 166 166 166 166 166 166 166 165 165 165 165 165 165 165 165 165 165 165 165 164 164 164 164 164 164 164 164 164 164 164 164 202 186 20 199 176 20 191 162 19 179 147 18 165 131 17 150 114 15 132 97 13 113 80 11 91 62 9 67 44 7 39 25 4 26 16 3 26 21 3 160 160 160 159 159 159 159 159 159 159 159 159 159 159 159 158 158 158 4 38 19 5 47 24 5 49 24 5 48 24 5 46 23 4 43 21 4 39 19 3 34 17 3 28 14 3 26 13 3 26 13 3 26 13 3 26 13 3 26 13 3 26 13 3 26 13 3 26 13 3 26 13 0 0 0 0 0 0 0 0 0 0 0 0 0 0 0 0 0 0 0 0 0 0 0 0 0 0 0 0 0 0 0 0 0 0 0 0 0 0 0 0 0 0 0 0 0 0 0 0 0 0 0 0 0 0 66 133 13 76 152 15 81 161 16 83 166 17 84 167 17 83 167 17 82 164 16 80 160 16 77 155 15 74 148 15 70 140 14 66 131 13 60 121 12 98 109 11 86 96 10 72 80 8 56 62 6 36 40 4 23 26 3 0 0 0 0 0 0 0 0 0 0 0 0 0 0 0 0 0 0 0 0 0 0 0 0 0 0 0 0 0 0 0 0 0 0 0 0 
168 168 168 168 168 168 167 167 167 167 167 167 167 167 167 167 167 167 166 166 166 166 166 166 166 166 166 166 166 166 165 165 165 165 165 165 165 165 165 188 181 19 197 180 20 192 168 19 183 154 18 171 139 17 157 123 16 141 107 14 123 90 12 104 73 10 82 56 8 58 39 6 31 20 3 26 16 3 26 15 3 161 161 161 161 161 161 160 160 160 160 160 160 160 160 160 160 160 160 159 159 159 159 159 159 3 26 13 3 27 14 3 28 14 3 26 13 3 26 13 3 26 13 3 26 13 3 26 13 3 26 13 3 26 13 3 26 13 3 26 13 3 26 13 3 26 13 26 26 26 0 0 0 0 0 0 0 0 0 0 0 0 0 0 0 0 0 0 0 0 0 0 0 0 0 0 0 0 0 0 0 0 0 0 0 0 0 0 0 0 0 0 0 0 0 0 0 0 0 0 0 0 0 0 0 0 0 54 109 11 68 136 14 74 148 15 77 153 15 78 155 16 77 155 15 76 153 15 75 149 15 72 144 14 69 137 14 65 130 13 60 121 12 55 110 11 89 98 10 76 85 8 62 69 7 45 50 5 24 27 3 23 26 3 0 0 0 0 0 0 0 0 0 0 0 0 0 0 0 0 0 0 0 0 0 0 0 0 0 0 0 0 0 0 0 0 0 0 0 0 
169 169 169 169 169 169 168 168 168 168 168 168 168 168 168 168 168 168 167 167 167 167 167 167 167 167 167 167 167 167 166 166 166 166 166 166 166 166 166 183 175 18 187 170 19 182 159 18 172 145 17 160 130 16 146 114 15 130 98 13 112 82 11 93 65 9 71 49 7 47 31 5 26 16 3 26 16 3 26 15 3 162 162 162 162 162 162 161 161 161 161 161 161 161 161 161 161 161 161 160 160 160 160 160 160 160 160 160 159 159 159 26 26 26 3 26 13 3 26 13 3 26 13 3 26 13 3 26 13 3 26 13 3 26 13 3 26 13 26 26 26 26 26 26 26 26 26 26 26 26 0 0 0 0 0 0 0 0 0 0 0 0 0 0 0 0 0 0 0 0 0 0 0 0 0 0 0 0 0 0 0 0 0 0 0 0 0 0 0 0 0 0 0 0 0 0 0 0 0 0 0 0 0 0 0 0 0 0 0 0 58 115 12 65 131 13 69 138 14 71 141 14 71 141 14 70 140 14 68 136 14 66 131 13 63 125 13 59 117 12 54 108 11 49 98 10 77 86 9 65 72 7 50 56 6 32 36 4 23 26 3 23 26 3 0 0 0 0 0 0 0 0 0 0 0 0 0 0 0 0 0 0 0 0 0 0 0 0 0 0 0 0 0 0 0 0 0 0 0 0 
170 170 170 170 170 170 169 169 169 169 169 169 169 169 169 169 169 169 168 168 168 168 168 168 168 168 168 168 168 168 167 167 167 167 167 167 167 167 167 171 163 17 175 159 18 169 147 17 160 134 16 148 119 15 133 104 13 117 88 12 100 73 10 80 56 8 58 40 6 34 23 3 26 16 3 26 16 3 26 15 3 163 163 163 163 163 163 162 162 162 162 162 162 162 162 162 162 162 162 161 161 161 161 161 161 161 161 161 160 160 160 160 160 160 26 26 26 26 26 26 26 26 26 26 26 26 26 26 26 26 26 26 26 26 26 26 26 26 26 26 26 26 26 26 26 26 26 26 26 26 0 0 0 0 0 0 0 0 0 0 0 0 0 0 0 0 0 0 0 0 0 0 0 0 0 0 0 0 0 0 0 0 0 0 0 0 0 0 0 0 0 0 0 0 0 0 0 0 0 0 0 0 0 0 0 0 0 0 0 0 40 79 8 54 108 11 60 119 12 62 124 12 63 125 13 62 125 12 61 122 12 58 117 12 55 111 11 52 103 10 47 94 9 75 84 8 64 71 7 51 57 6 35 39 4 23 26 3 23 26 3 0 0 0 0 0 0 0 0 0 0 0 0 0 0 0 0 0 0 0 0 0 0 0 0 0 0 0 0 0 0 0 0 0 0 0 0 0 0 0 
171 171 171 170 170 170 170 170 170 170 170 170 170 170 170 169 169 169 169 169 169 169 169 169 169 169 169 168 168 168 168 168 168 168 168 168 168 168 168 153 146 15 160 145 16 155 135 15 145 122 15 133 108 13 119 93 12 103 78 10 85 62 9 65 46 7 43 30 4 26 17 3 26 16 3 26 16 3 26 15 3 164 164 164 163 163 163 163 163 163 163 163 163 163 163 163 162 162 162 26 26 26 162 162 162 162 162 162 161 161 161 161 161 161 161 161 161 161 161 161 160 160 160 160 160 160 160 160 160 160 160 160 159 159 159 159 159 159 159 159 159 158 158 158 158 158 158 158 158 158 0 0 0 0 0 0 0 0 0 0 0 0 0 0 0 0 0 0 0 0 0 0 0 0 0 0 0 0 0 0 0 0 0 0 0 0 0 0 0 0 0 0 0 0 0 0 0 0 0 0 0 0 0 0 0 0 0 0 0 0 0 0 0 37 74 7 47 95 9 52 103 10 53 106 11 53 106 11 52 104 10 50 100 10 47 94 9 43 87 9 39 78 8 60 67 7 48 54 5 34 38 4 23 26 3 23 26 3 23 26 3 0 0 0 0 0 0 0 0 0 0 0 0 0 0 0 0 0 0 0 0 0 0 0 0 0 0 0 0 0 0 0 0 0 0 0 0 0 0 0 
0 0 0 0 0 0 0 0 0 0 0 0 0 0 0 0 0 0 0 0 0 0 0 0 0 0 0 0 0 0 0 0 0 0 0 0 0 0 0 0 0 0 140 128 14 137 120 14 128 108 13 117 95 12 103 80 10 86 65 9 68 50 7 48 34 5 26 18 3 26 17 3 26 16 3 26 16 3 0 0 0 0 0 0 0 0 0 0 0 0 0 0 0 0 0 0 0 0 0 0 0 0 0 0 0 0 0 0 0 0 0 0 0 0 0 0 0 0 0 0 0 0 0 0 0 0 0 0 0 0 0 0 0 0 0 0 0 0 0 0 0 0 0 0 0 0 0 0 0 0 159 159 159 158 158 158 158 158 158 158 158 158 158 158 158 157 157 157 157 157 157 157 157 157 156 156 156 156 156 156 156 156 156 156 156 156 155 155 155 155 155 155 155 155 155 155 155 155 154 154 154 154 154 154 154 154 154 154 154 154 153 153 153 153 153 153 28 55 6 37 75 7 41 82 8 42 84 8 42 83 8 40 80 8 37 74 7 33 67 7 29 57 6 41 46 5 29 32 3 23 26 3 23 26 3 23 26 3 26 26 26 26 26 26 26 26 26 26 26 26 26 26 26 26 26 26 26 26 26 26 26 26 26 26 26 26 26 26 26 26 26 147 147 147 146 146 146 146 146 146 
0 0 0 0 0 0 0 0 0 0 0 0 0 0 0 0 0 0 0 0 0 0 0 0 0 0 0 0 0 0 0 0 0 0 0 0 0 0 0 0 0 0 114 105 11 116 102 12 108 92 11 97 79 10 84 66 8 68 51 7 49 36 5 29 21 3 26 18 3 26 17 3 26 16 3 26 16 3 0 0 0 0 0 0 0 0 0 0 0 0 0 0 0 0 0 0 0 0 0 0 0 0 0 0 0 0 0 0 0 0 0 0 0 0 0 0 0 0 0 0 0 0 0 0 0 0 0 0 0 0 0 0 0 0 0 0 0 0 0 0 0 0 0 0 0 0 0 0 0 0 159 159 159 159 159 159 159 159 159 159 159 159 158 158 158 158 158 158 158 158 158 158 158 158 157 157 157 157 157 157 157 157 157 157 157 157 156 156 156 156 156 156 156 156 156 156 156 156 155 155 155 155 155 155 155 155 155 155 155 155 154 154 154 154 154 154 154 154 154 154 154 154 23 46 5 27 54 5 28 56 6 27 54 5 24 49 5 21 41 4 16 32 3 23 26 3 23 26 3 23 26 3 26 26 26 26 26 26 26 26 26 26 26 26 26 26 26 26 26 26 26 26 26 26 26 26 26 26 26 26 26 26 26 26 26 148 148 148 148 148 148 148 148 148 147 147 147 147 147 147 
0 0 0 0 0 0 0 0 0 0 0 0 0 0 0 0 0 0 0 0 0 0 0 0 0 0 0 0 0 0 0 0 0 0 0 0 0 0 0 0 0 0 0 0 0 86 77 9 84 71 8 74 61 7 61 48 6 45 34 5 27 20 3 26 18 3 26 18 3 26 17 3 26 17 3 0 0 0 0 0 0 0 0 0 0 0 0 0 0 0 0 0 0 0 0 0 0 0 0 0 0 0 0 0 0 0 0 0 0 0 0 0 0 0 0 0 0 0 0 0 0 0 0 0 0 0 0 0 0 0 0 0 0 0 0 0 0 0 0 0 0 0 0 0 0 0 0 0 0 0 160 160 160 160 160 160 160 160 160 159 159 159 159 159 159 159 159 159 159 159 159 158 158 158 158 158 158 158 158 158 158 158 158 157 157 157 157 157 157 157 157 157 157 157 157 156 156 156 156 156 156 156 156 156 156 156 156 155 155 155 155 155 155 155 155 155 155 155 155 154 154 154 154 154 154 26 26 26 13 26 3 13 26 3 13 26 3 13 26 3 23 26 3 23 26 3 26 26 26 26 26 26 26 26 26 26 26 26 26 26 26 26 26 26 26 26 26 26 26 26 26 26 26 26 26 26 26 26 26 150 150 150 149 149 149 149 149 149 149 149 149 149 149 149 148 148 148 148 148 148 
0 0 0 0 0 0 0 0 0 0 0 0 0 0 0 0 0 0 0 0 0 0 0 0 0 0 0 0 0 0 0 0 0 0 0 0 0 0 0 0 0 0 0 0 0 0 0 0 45 39 4 43 36 4 32 26 3 26 20 3 26 19 3 26 19 3 26 18 3 0 0 0 0 0 0 0 0 0 0 0 0 0 0 0 0 0 0 0 0 0 0 0 0 0 0 0 0 0 0 0 0 0 0 0 0 0 0 0 0 0 0 0 0 0 0 0 0 0 0 0 0 0 0 0 0 0 0 0 0 0 0 0 0 0 0 0 0 0 0 0 0 0 0 0 0 0 0 0 0 0 161 161 161 161 161 161 160 160 160 160 160 160 160 160 160 160 160 160 159 159 159 159 159 159 159 159 159 159 159 159 158 158 158 158 158 158 158 158 158 158 158 158 157 157 157 157 157 157 157 157 157 157 157 157 156 156 156 156 156 156 156 156 156 156 156 156 155 155 155 155 155 155 155 155 155 155 155 155 155 155 155 154 154 154 26 26 26 26 26 26 26 26 26 26 26 26 26 26 26 26 26 26 26 26 26 26 26 26 26 26 26 26 26 26 152 152 152 151 151 151 151 151 151 151 151 151 151 151 151 150 150 150 150 150 150 150 150 150 150 150 150 150 150 150 149 149 149 149 149 149 
0 0 0 0 0 0 0 0 0 0 0 0 0 0 0 0 0 0 0 0 0 0 0 0 0 0 0 0 0 0 0 0 0 0 0 0 0 0 0 0 0 0 0 0 0 0 0 0 0 0 0 0 0 0 0 0 0 0 0 0 0 0 0 0 0 0 0 0 0 0 0 0 0 0 0 0 0 0 0 0 0 0 0 0 0 0 0 0 0 0 0 0 0 0 0 0 0 0 0 0 0 0 0 0 0 0 0 0 0 0 0 0 0 0 0 0 0 0 0 0 0 0 0 0 0 0 0 0 0 0 0 0 0 0 0 0 0 0 0 0 0 0 0 0 0 0 0 0 0 0 161 161 161 161 161 161 161 161 161 161 161 161 161 161 161 160 160 160 160 160 160 160 160 160 160 160 160 159 159 159 159 159 159 159 159 159 159 159 159 158 158 158 158 158 158 158 158 158 158 158 158 157 157 157 157 157 157 157 157 157 157 157 157 156 156 156 156 156 156 156 156 156 156 156 156 156 156 156 155 155 155 155 155 155 155 155 155 155 155 155 154 154 154 154 154 154 154 154 154 154 154 154 153 153 153 153 153 153 153 153 153 153 153 153 152 152 152 152 152 152 152 152 152 152 152 152 152 152 152 151 151 151 151 151 151 151 151 151 151 151 151 150 150 150 150 150 150 150 150 150 
0 0 0 0 0 0 0 0 0 0 0 0 0 0 0 0 0 0 0 0 0 0 0 0 0 0 0 0 0 0 0 0 0 0 0 0 0 0 0 0 0 0 0 0 0 0 0 0 0 0 0 0 0 0 0 0 0 0 0 0 0 0 0 0 0 0 0 0 0 0 0 0 0 0 0 0 0 0 0 0 0 0 0 0 0 0 0 0 0 0 0 0 0 0 0 0 0 0 0 0 0 0 0 0 0 0 0 0 0 0 0 0 0 0 0 0 0 0 0 0 0 0 0 0 0 0 0 0 0 0 0 0 0 0 0 0 0 0 0 0 0 0 0 0 0 0 0 0 0 0 162 162 162 162 162 162 162 162 162 161 161 161 161 161 161 161 161 161 161 161 161 160 160 160 160 160 160 160 160 160 160 160 160 160 160 160 159 159 159 159 159 159 159 159 159 159 159 159 158 158 158 158 158 158 158 158 158 158 158 158 157 157 157 157 157 157 157 157 157 157 157 157 156 156 156 156 156 156 156 156 156 156 156 156 156 156 156 155 155 155 155 155 155 155 155 155 155 155 155 154 154 154 154 154 154 154 154 154 154 154 154 154 154 154 153 153 153 153 153 153 153 153 153 153 153 153 152 152 152 152 152 152 152 152 152 152 152 152 151 151 151 151 151 151 151 151 151 151 151 151 
0 0 0 0 0 0 0 0 0 0 0 0 0 0 0 0 0 0 0 0 0 0 0 0 0 0 0 0 0 0 0 0 0 0 0 0 0 0 0 0 0 0 0 0 0 0 0 0 0 0 0 0 0 0 0 0 0 0 0 0 0 0 0 0 0 0 0 0 0 0 0 0 0 0 0 0 0 0 0 0 0 0 0 0 0 0 0 0 0 0 0 0 0 0 0 0 0 0 0 0 0 0 0 0 0 0 0 0 0 0 0 0 0 0 0 0 0 0 0 0 0 0 0 0 0 0 0 0 0 0 0 0 0 0 0 0 0 0 0 0 0 0 0 0 0 0 0 0 0 0 163 163 163 162 162 162 162 162 162 162 162 162 162 162 162 162 162 162 161 161 161 161 161 161 161 161 161 161 161 161 160 160 160 160 160 160 160 160 160 160 160 160 159 159 159 159 159 159 159 159 159 159 159 159 159 159 159 158 158 158 158 158 158 158 158 158 158 158 158 157 157 157 157 157 157 157 157 157 157 157 157 156 156 156 156 156 156 156 156 156 156 156 156 156 156 156 155 155 155 155 155 155 155 155 155 155 155 155 154 154 154 154 154 154 154 154 154 154 154 154 154 154 154 153 153 153 153 153 153 153 153 153 153 153 153 152 152 152 152 152 152 152 152 152 152 152 152 152 152 152 
0 0 0 0 0 0 0 0 0 0 0 0 0 0 0 0 0 0 0 0 0 0 0 0 0 0 0 0 0 0 0 0 0 0 0 0 0 0 0 0 0 0 0 0 0 0 0 0 0 0 0 0 0 0 0 0 0 0 0 0 0 0 0 0 0 0 0 0 0 0 0 0 0 0 0 0 0 0 0 0 0 0 0 0 0 0 0 0 0 0 0 0 0 0 0 0 0 0 0 0 0 0 0 0 0 0 0 0 0 0 0 0 0 0 0 0 0 0 0 0 0 0 0 0 0 0 0 0 0 0 0 0 0 0 0 0 0 0 0 0 0 0 0 0 0 0 0 0 0 0 163 163 163 163 163 163 163 163 163 163 163 163 162 162 162 162 162 162 162 162 162 162 162 162 161 161 161 161 161 161 161 161 161 161 161 161 160 160 160 160 160 160 160 160 160 160 160 160 160 160 160 159 159 159 159 159 159 159 159 159 159 159 159 158 158 158 158 158 158 158 158 158 158 158 158 158 158 158 157 157 157 157 157 157 157 157 157 157 157 157 156 156 156 156 156 156 156 156 156 156 156 156 156 156 156 155 155 155 155 155 155 155 155 155 155 155 155 155 155 155 154 154 154 154 154 154 154 154 154 154 154 154 153 153 153 153 153 153 153 153 153 153 153 153 153 153 153 152 152 152 
